<mxfile modified="2022-03-29T13:26:46.367Z" host="app.diagrams.net" agent="5.0 (Macintosh; Intel Mac OS X 10_15_7) AppleWebKit/537.36 (KHTML, like Gecko) Chrome/99.0.4844.88 Safari/537.36" etag="lrPDELayacWOsPPzMJcT" version="17.2.4" type="github">
  <diagram id="Ht1M8jgEwFfnCIfOTk4-" name="Page-1">
    <mxGraphModel dx="2194" dy="2843" grid="1" gridSize="10" guides="1" tooltips="1" connect="1" arrows="1" fold="1" page="1" pageScale="1" pageWidth="1169" pageHeight="827" math="0" shadow="0">
      <root>
        <mxCell id="0" />
        <mxCell id="1" parent="0" />
        <mxCell id="DScNW-XV0BTDIEd8ZfKR-45" value="" style="edgeStyle=orthogonalEdgeStyle;rounded=0;orthogonalLoop=1;jettySize=auto;html=1;entryX=0;entryY=0.75;entryDx=0;entryDy=0;" edge="1" parent="1" source="DScNW-XV0BTDIEd8ZfKR-2" target="DScNW-XV0BTDIEd8ZfKR-24">
          <mxGeometry relative="1" as="geometry">
            <Array as="points">
              <mxPoint x="940" y="-1170" />
              <mxPoint x="940" y="-703" />
            </Array>
          </mxGeometry>
        </mxCell>
        <mxCell id="DScNW-XV0BTDIEd8ZfKR-46" value="" style="edgeStyle=orthogonalEdgeStyle;rounded=0;orthogonalLoop=1;jettySize=auto;html=1;exitX=0.75;exitY=1;exitDx=0;exitDy=0;entryX=1;entryY=0.5;entryDx=0;entryDy=0;" edge="1" parent="1" source="DScNW-XV0BTDIEd8ZfKR-2" target="DScNW-XV0BTDIEd8ZfKR-38">
          <mxGeometry relative="1" as="geometry">
            <Array as="points">
              <mxPoint x="769" y="-720" />
            </Array>
          </mxGeometry>
        </mxCell>
        <mxCell id="DScNW-XV0BTDIEd8ZfKR-2" value="AWS Sistemas BECH" style="points=[[0,0],[0.25,0],[0.5,0],[0.75,0],[1,0],[1,0.25],[1,0.5],[1,0.75],[1,1],[0.75,1],[0.5,1],[0.25,1],[0,1],[0,0.75],[0,0.5],[0,0.25]];outlineConnect=0;gradientColor=none;html=1;whiteSpace=wrap;fontSize=12;fontStyle=0;shape=mxgraph.aws4.group;grIcon=mxgraph.aws4.group_aws_cloud_alt;strokeColor=#232F3E;fillColor=none;verticalAlign=top;align=left;spacingLeft=30;fontColor=#232F3E;dashed=0;labelBackgroundColor=#ffffff;container=1;pointerEvents=0;collapsible=0;recursiveResize=0;" vertex="1" parent="1">
          <mxGeometry x="289" y="-1230" width="640" height="120" as="geometry" />
        </mxCell>
        <mxCell id="DScNW-XV0BTDIEd8ZfKR-7" value="Sistemas Bech" style="outlineConnect=0;dashed=0;verticalLabelPosition=bottom;verticalAlign=top;align=center;html=1;shape=mxgraph.aws3.corporate_data_center;fillColor=#7D7C7C;gradientColor=none;" vertex="1" parent="DScNW-XV0BTDIEd8ZfKR-2">
          <mxGeometry x="421" y="20" width="46.5" height="63" as="geometry" />
        </mxCell>
        <mxCell id="DScNW-XV0BTDIEd8ZfKR-8" value="AWS Registro Contenedores&amp;nbsp;" style="points=[[0,0],[0.25,0],[0.5,0],[0.75,0],[1,0],[1,0.25],[1,0.5],[1,0.75],[1,1],[0.75,1],[0.5,1],[0.25,1],[0,1],[0,0.75],[0,0.5],[0,0.25]];outlineConnect=0;gradientColor=none;html=1;whiteSpace=wrap;fontSize=12;fontStyle=0;shape=mxgraph.aws4.group;grIcon=mxgraph.aws4.group_aws_cloud_alt;strokeColor=#232F3E;fillColor=none;verticalAlign=top;align=left;spacingLeft=30;fontColor=#232F3E;dashed=0;labelBackgroundColor=#ffffff;container=1;pointerEvents=0;collapsible=0;recursiveResize=0;" vertex="1" parent="1">
          <mxGeometry x="289" y="-1080" width="640" height="450" as="geometry" />
        </mxCell>
        <mxCell id="DScNW-XV0BTDIEd8ZfKR-10" value="VPC" style="points=[[0,0],[0.25,0],[0.5,0],[0.75,0],[1,0],[1,0.25],[1,0.5],[1,0.75],[1,1],[0.75,1],[0.5,1],[0.25,1],[0,1],[0,0.75],[0,0.5],[0,0.25]];outlineConnect=0;gradientColor=none;html=1;whiteSpace=wrap;fontSize=12;fontStyle=0;container=1;pointerEvents=0;collapsible=0;recursiveResize=0;shape=mxgraph.aws4.group;grIcon=mxgraph.aws4.group_vpc;strokeColor=#248814;fillColor=none;verticalAlign=top;align=left;spacingLeft=30;fontColor=#AAB7B8;dashed=0;" vertex="1" parent="DScNW-XV0BTDIEd8ZfKR-8">
          <mxGeometry x="100" y="50" width="480" height="380" as="geometry" />
        </mxCell>
        <mxCell id="DScNW-XV0BTDIEd8ZfKR-32" value="Private Subnet RDS" style="points=[[0,0],[0.25,0],[0.5,0],[0.75,0],[1,0],[1,0.25],[1,0.5],[1,0.75],[1,1],[0.75,1],[0.5,1],[0.25,1],[0,1],[0,0.75],[0,0.5],[0,0.25]];outlineConnect=0;html=1;whiteSpace=wrap;fontSize=12;fontStyle=0;shape=mxgraph.aws4.group;grIcon=mxgraph.aws4.group_aws_cloud_alt;strokeColor=#6c8ebf;fillColor=#dae8fc;verticalAlign=top;align=left;spacingLeft=30;dashed=0;labelBackgroundColor=#ffffff;container=1;pointerEvents=0;collapsible=0;recursiveResize=0;" vertex="1" parent="DScNW-XV0BTDIEd8ZfKR-10">
          <mxGeometry x="115" y="10" width="210" height="100" as="geometry" />
        </mxCell>
        <mxCell id="DScNW-XV0BTDIEd8ZfKR-35" value="RDS MySQL" style="sketch=0;outlineConnect=0;fontColor=#232F3E;gradientColor=none;strokeColor=#ffffff;fillColor=#232F3E;dashed=0;verticalLabelPosition=middle;verticalAlign=bottom;align=center;html=1;whiteSpace=wrap;fontSize=10;fontStyle=1;spacing=3;shape=mxgraph.aws4.productIcon;prIcon=mxgraph.aws4.rds;" vertex="1" parent="DScNW-XV0BTDIEd8ZfKR-32">
          <mxGeometry x="76" y="25.95" width="46" height="74.05" as="geometry" />
        </mxCell>
        <mxCell id="DScNW-XV0BTDIEd8ZfKR-49" style="edgeStyle=orthogonalEdgeStyle;rounded=0;orthogonalLoop=1;jettySize=auto;html=1;" edge="1" parent="DScNW-XV0BTDIEd8ZfKR-10" source="DScNW-XV0BTDIEd8ZfKR-36" target="DScNW-XV0BTDIEd8ZfKR-32">
          <mxGeometry relative="1" as="geometry" />
        </mxCell>
        <mxCell id="DScNW-XV0BTDIEd8ZfKR-36" value="Private Subnet" style="points=[[0,0],[0.25,0],[0.5,0],[0.75,0],[1,0],[1,0.25],[1,0.5],[1,0.75],[1,1],[0.75,1],[0.5,1],[0.25,1],[0,1],[0,0.75],[0,0.5],[0,0.25]];outlineConnect=0;html=1;whiteSpace=wrap;fontSize=12;fontStyle=0;shape=mxgraph.aws4.group;grIcon=mxgraph.aws4.group_aws_cloud_alt;strokeColor=#6c8ebf;fillColor=#dae8fc;verticalAlign=top;align=left;spacingLeft=30;dashed=0;labelBackgroundColor=#ffffff;container=1;pointerEvents=0;collapsible=0;recursiveResize=0;" vertex="1" parent="DScNW-XV0BTDIEd8ZfKR-10">
          <mxGeometry x="115" y="137" width="210" height="100" as="geometry" />
        </mxCell>
        <mxCell id="DScNW-XV0BTDIEd8ZfKR-30" value="Amazon EKS" style="sketch=0;outlineConnect=0;fontColor=#232F3E;gradientColor=none;strokeColor=#ffffff;fillColor=#232F3E;dashed=0;verticalLabelPosition=middle;verticalAlign=bottom;align=center;html=1;whiteSpace=wrap;fontSize=10;fontStyle=1;spacing=3;shape=mxgraph.aws4.productIcon;prIcon=mxgraph.aws4.eks;" vertex="1" parent="DScNW-XV0BTDIEd8ZfKR-36">
          <mxGeometry x="78.25" y="30" width="41.5" height="70" as="geometry" />
        </mxCell>
        <mxCell id="DScNW-XV0BTDIEd8ZfKR-51" style="edgeStyle=orthogonalEdgeStyle;rounded=0;orthogonalLoop=1;jettySize=auto;html=1;" edge="1" parent="DScNW-XV0BTDIEd8ZfKR-10" source="DScNW-XV0BTDIEd8ZfKR-38" target="DScNW-XV0BTDIEd8ZfKR-36">
          <mxGeometry relative="1" as="geometry" />
        </mxCell>
        <mxCell id="DScNW-XV0BTDIEd8ZfKR-38" value="Private Subnet ELBs" style="points=[[0,0],[0.25,0],[0.5,0],[0.75,0],[1,0],[1,0.25],[1,0.5],[1,0.75],[1,1],[0.75,1],[0.5,1],[0.25,1],[0,1],[0,0.75],[0,0.5],[0,0.25]];outlineConnect=0;html=1;whiteSpace=wrap;fontSize=12;fontStyle=0;shape=mxgraph.aws4.group;grIcon=mxgraph.aws4.group_aws_cloud_alt;strokeColor=#6c8ebf;fillColor=#dae8fc;verticalAlign=top;align=left;spacingLeft=30;dashed=0;labelBackgroundColor=#ffffff;container=1;pointerEvents=0;collapsible=0;recursiveResize=0;" vertex="1" parent="DScNW-XV0BTDIEd8ZfKR-10">
          <mxGeometry x="115" y="267" width="210" height="100" as="geometry" />
        </mxCell>
        <mxCell id="DScNW-XV0BTDIEd8ZfKR-40" value="ALB" style="sketch=0;outlineConnect=0;fontColor=#232F3E;gradientColor=none;fillColor=#4D27AA;strokeColor=none;dashed=0;verticalLabelPosition=bottom;verticalAlign=top;align=center;html=1;fontSize=12;fontStyle=0;aspect=fixed;pointerEvents=1;shape=mxgraph.aws4.application_load_balancer;" vertex="1" parent="DScNW-XV0BTDIEd8ZfKR-38">
          <mxGeometry x="78.25" y="31" width="38" height="38" as="geometry" />
        </mxCell>
        <mxCell id="DScNW-XV0BTDIEd8ZfKR-11" value="ECR" style="sketch=0;points=[[0,0,0],[0.25,0,0],[0.5,0,0],[0.75,0,0],[1,0,0],[0,1,0],[0.25,1,0],[0.5,1,0],[0.75,1,0],[1,1,0],[0,0.25,0],[0,0.5,0],[0,0.75,0],[1,0.25,0],[1,0.5,0],[1,0.75,0]];outlineConnect=0;fontColor=#232F3E;gradientColor=#F78E04;gradientDirection=north;fillColor=#D05C17;strokeColor=#ffffff;dashed=0;verticalLabelPosition=bottom;verticalAlign=top;align=center;html=1;fontSize=12;fontStyle=0;aspect=fixed;shape=mxgraph.aws4.resourceIcon;resIcon=mxgraph.aws4.ecr;" vertex="1" parent="DScNW-XV0BTDIEd8ZfKR-8">
          <mxGeometry x="21" y="50" width="58" height="58" as="geometry" />
        </mxCell>
        <mxCell id="DScNW-XV0BTDIEd8ZfKR-14" value="AWS Networking" style="points=[[0,0],[0.25,0],[0.5,0],[0.75,0],[1,0],[1,0.25],[1,0.5],[1,0.75],[1,1],[0.75,1],[0.5,1],[0.25,1],[0,1],[0,0.75],[0,0.5],[0,0.25]];outlineConnect=0;gradientColor=none;html=1;whiteSpace=wrap;fontSize=12;fontStyle=0;shape=mxgraph.aws4.group;grIcon=mxgraph.aws4.group_aws_cloud_alt;strokeColor=#232F3E;fillColor=none;verticalAlign=top;align=left;spacingLeft=30;fontColor=#232F3E;dashed=0;labelBackgroundColor=#ffffff;container=1;pointerEvents=0;collapsible=0;recursiveResize=0;" vertex="1" parent="1">
          <mxGeometry x="950" y="-1230" width="200" height="600" as="geometry" />
        </mxCell>
        <mxCell id="DScNW-XV0BTDIEd8ZfKR-16" value="FW" style="sketch=0;points=[[0,0,0],[0.25,0,0],[0.5,0,0],[0.75,0,0],[1,0,0],[0,1,0],[0.25,1,0],[0.5,1,0],[0.75,1,0],[1,1,0],[0,0.25,0],[0,0.5,0],[0,0.75,0],[1,0.25,0],[1,0.5,0],[1,0.75,0]];outlineConnect=0;fontColor=#232F3E;gradientColor=#F54749;gradientDirection=north;fillColor=#C7131F;strokeColor=#ffffff;dashed=0;verticalLabelPosition=bottom;verticalAlign=top;align=center;html=1;fontSize=12;fontStyle=0;aspect=fixed;shape=mxgraph.aws4.resourceIcon;resIcon=mxgraph.aws4.network_firewall;" vertex="1" parent="DScNW-XV0BTDIEd8ZfKR-14">
          <mxGeometry x="61.5" y="90" width="67" height="67" as="geometry" />
        </mxCell>
        <mxCell id="DScNW-XV0BTDIEd8ZfKR-17" value="Route53" style="sketch=0;points=[[0,0,0],[0.25,0,0],[0.5,0,0],[0.75,0,0],[1,0,0],[0,1,0],[0.25,1,0],[0.5,1,0],[0.75,1,0],[1,1,0],[0,0.25,0],[0,0.5,0],[0,0.75,0],[1,0.25,0],[1,0.5,0],[1,0.75,0]];outlineConnect=0;fontColor=#232F3E;gradientColor=#945DF2;gradientDirection=north;fillColor=#5A30B5;strokeColor=#ffffff;dashed=0;verticalLabelPosition=bottom;verticalAlign=top;align=center;html=1;fontSize=12;fontStyle=0;aspect=fixed;shape=mxgraph.aws4.resourceIcon;resIcon=mxgraph.aws4.route_53;" vertex="1" parent="DScNW-XV0BTDIEd8ZfKR-14">
          <mxGeometry x="60" y="230" width="70" height="70" as="geometry" />
        </mxCell>
        <mxCell id="DScNW-XV0BTDIEd8ZfKR-18" value="Transit GW" style="sketch=0;points=[[0,0,0],[0.25,0,0],[0.5,0,0],[0.75,0,0],[1,0,0],[0,1,0],[0.25,1,0],[0.5,1,0],[0.75,1,0],[1,1,0],[0,0.25,0],[0,0.5,0],[0,0.75,0],[1,0.25,0],[1,0.5,0],[1,0.75,0]];outlineConnect=0;fontColor=#232F3E;gradientColor=#945DF2;gradientDirection=north;fillColor=#5A30B5;strokeColor=#ffffff;dashed=0;verticalLabelPosition=bottom;verticalAlign=top;align=center;html=1;fontSize=12;fontStyle=0;aspect=fixed;shape=mxgraph.aws4.resourceIcon;resIcon=mxgraph.aws4.transit_gateway;" vertex="1" parent="DScNW-XV0BTDIEd8ZfKR-14">
          <mxGeometry x="61.5" y="380" width="70" height="70" as="geometry" />
        </mxCell>
        <mxCell id="DScNW-XV0BTDIEd8ZfKR-21" value="AWS Mambu" style="points=[[0,0],[0.25,0],[0.5,0],[0.75,0],[1,0],[1,0.25],[1,0.5],[1,0.75],[1,1],[0.75,1],[0.5,1],[0.25,1],[0,1],[0,0.75],[0,0.5],[0,0.25]];outlineConnect=0;gradientColor=none;html=1;whiteSpace=wrap;fontSize=12;fontStyle=0;shape=mxgraph.aws4.group;grIcon=mxgraph.aws4.group_aws_cloud_alt;strokeColor=#232F3E;fillColor=none;verticalAlign=top;align=left;spacingLeft=30;fontColor=#232F3E;dashed=0;labelBackgroundColor=#ffffff;container=1;pointerEvents=0;collapsible=0;recursiveResize=0;" vertex="1" parent="1">
          <mxGeometry x="1200" y="-1230" width="230" height="270" as="geometry" />
        </mxCell>
        <mxCell id="DScNW-XV0BTDIEd8ZfKR-41" value="MAMBU" style="whiteSpace=wrap;html=1;fillColor=#fff2cc;strokeColor=#d6b656;" vertex="1" parent="DScNW-XV0BTDIEd8ZfKR-21">
          <mxGeometry x="40" y="43" width="150" height="177" as="geometry" />
        </mxCell>
        <mxCell id="DScNW-XV0BTDIEd8ZfKR-24" value="AWS 2Innovate" style="points=[[0,0],[0.25,0],[0.5,0],[0.75,0],[1,0],[1,0.25],[1,0.5],[1,0.75],[1,1],[0.75,1],[0.5,1],[0.25,1],[0,1],[0,0.75],[0,0.5],[0,0.25]];outlineConnect=0;gradientColor=none;html=1;whiteSpace=wrap;fontSize=12;fontStyle=0;shape=mxgraph.aws4.group;grIcon=mxgraph.aws4.group_aws_cloud_alt;strokeColor=#232F3E;fillColor=none;verticalAlign=top;align=left;spacingLeft=30;fontColor=#232F3E;dashed=0;labelBackgroundColor=#ffffff;container=1;pointerEvents=0;collapsible=0;recursiveResize=0;" vertex="1" parent="1">
          <mxGeometry x="1200" y="-920" width="230" height="290" as="geometry" />
        </mxCell>
        <mxCell id="DScNW-XV0BTDIEd8ZfKR-27" value="PTS" style="whiteSpace=wrap;html=1;fillColor=#fff2cc;strokeColor=#d6b656;" vertex="1" parent="DScNW-XV0BTDIEd8ZfKR-24">
          <mxGeometry x="52.5" y="60" width="125" height="180" as="geometry" />
        </mxCell>
        <mxCell id="DScNW-XV0BTDIEd8ZfKR-28" value="INTEGRACION BECH &amp;lt;--&amp;gt; AWS" style="rounded=0;whiteSpace=wrap;html=1;" vertex="1" parent="1">
          <mxGeometry x="289" y="-610" width="1141" height="60" as="geometry" />
        </mxCell>
        <mxCell id="DScNW-XV0BTDIEd8ZfKR-52" value="" style="edgeStyle=orthogonalEdgeStyle;rounded=0;orthogonalLoop=1;jettySize=auto;html=1;exitX=0;exitY=0.5;exitDx=0;exitDy=0;entryX=0;entryY=0.5;entryDx=0;entryDy=0;" edge="1" parent="1" source="DScNW-XV0BTDIEd8ZfKR-24" target="DScNW-XV0BTDIEd8ZfKR-21">
          <mxGeometry relative="1" as="geometry">
            <Array as="points">
              <mxPoint x="1120" y="-775" />
              <mxPoint x="1120" y="-1095" />
            </Array>
          </mxGeometry>
        </mxCell>
        <mxCell id="DScNW-XV0BTDIEd8ZfKR-53" style="edgeStyle=orthogonalEdgeStyle;rounded=0;orthogonalLoop=1;jettySize=auto;html=1;entryX=0;entryY=0.75;entryDx=0;entryDy=0;" edge="1" parent="1" source="DScNW-XV0BTDIEd8ZfKR-36" target="DScNW-XV0BTDIEd8ZfKR-27">
          <mxGeometry relative="1" as="geometry" />
        </mxCell>
        <mxCell id="DScNW-XV0BTDIEd8ZfKR-67" value="" style="edgeStyle=orthogonalEdgeStyle;rounded=0;orthogonalLoop=1;jettySize=auto;html=1;fontColor=#000000;" edge="1" parent="1" source="DScNW-XV0BTDIEd8ZfKR-54" target="DScNW-XV0BTDIEd8ZfKR-65">
          <mxGeometry relative="1" as="geometry" />
        </mxCell>
        <mxCell id="DScNW-XV0BTDIEd8ZfKR-54" value="Cliente APP 2.0" style="html=1;verticalLabelPosition=bottom;align=center;labelBackgroundColor=#ffffff;verticalAlign=top;strokeWidth=2;strokeColor=#0080F0;shadow=0;dashed=0;shape=mxgraph.ios7.icons.smartphone;" vertex="1" parent="1">
          <mxGeometry x="150" y="-430" width="30" height="50" as="geometry" />
        </mxCell>
        <mxCell id="DScNW-XV0BTDIEd8ZfKR-58" value="IBM Cloud" style="shape=mxgraph.ibm.box;prType=cloud;fontStyle=0;verticalAlign=top;align=left;spacingLeft=32;spacingTop=4;fillColor=none;rounded=0;whiteSpace=wrap;html=1;strokeColor=#4376BB;strokeWidth=3;dashed=0;container=1;spacing=-4;collapsible=0;expand=0;recursiveResize=0;" vertex="1" parent="1">
          <mxGeometry x="450" y="-510" width="860" height="330" as="geometry" />
        </mxCell>
        <mxCell id="DScNW-XV0BTDIEd8ZfKR-71" style="edgeStyle=orthogonalEdgeStyle;rounded=0;orthogonalLoop=1;jettySize=auto;html=1;entryX=1;entryY=0.5;entryDx=0;entryDy=0;entryPerimeter=0;fontColor=#000000;" edge="1" parent="DScNW-XV0BTDIEd8ZfKR-58" source="DScNW-XV0BTDIEd8ZfKR-55" target="DScNW-XV0BTDIEd8ZfKR-70">
          <mxGeometry relative="1" as="geometry">
            <Array as="points">
              <mxPoint x="410" y="147" />
              <mxPoint x="410" y="83" />
            </Array>
          </mxGeometry>
        </mxCell>
        <mxCell id="DScNW-XV0BTDIEd8ZfKR-80" style="edgeStyle=orthogonalEdgeStyle;rounded=0;orthogonalLoop=1;jettySize=auto;html=1;entryX=1;entryY=0.5;entryDx=0;entryDy=0;fontColor=#000000;startArrow=classicThin;startFill=1;" edge="1" parent="DScNW-XV0BTDIEd8ZfKR-58" source="DScNW-XV0BTDIEd8ZfKR-55" target="DScNW-XV0BTDIEd8ZfKR-77">
          <mxGeometry relative="1" as="geometry">
            <Array as="points">
              <mxPoint x="560" y="200" />
              <mxPoint x="560" y="47" />
            </Array>
          </mxGeometry>
        </mxCell>
        <mxCell id="DScNW-XV0BTDIEd8ZfKR-84" style="edgeStyle=orthogonalEdgeStyle;rounded=0;orthogonalLoop=1;jettySize=auto;html=1;fontColor=#000000;startArrow=none;startFill=0;" edge="1" parent="DScNW-XV0BTDIEd8ZfKR-58" source="DScNW-XV0BTDIEd8ZfKR-55" target="DScNW-XV0BTDIEd8ZfKR-75">
          <mxGeometry relative="1" as="geometry">
            <Array as="points">
              <mxPoint x="490" y="270" />
              <mxPoint x="560" y="270" />
              <mxPoint x="560" y="230" />
            </Array>
          </mxGeometry>
        </mxCell>
        <mxCell id="DScNW-XV0BTDIEd8ZfKR-55" value="&lt;font color=&quot;#000000&quot;&gt;ICP Personas&lt;/font&gt;" style="aspect=fixed;perimeter=ellipsePerimeter;html=1;align=center;shadow=0;dashed=0;fontColor=#4277BB;labelBackgroundColor=#ffffff;fontSize=12;spacingTop=3;image;image=img/lib/ibm/data/cloud.svg;" vertex="1" parent="DScNW-XV0BTDIEd8ZfKR-58">
          <mxGeometry x="460" y="170" width="60" height="60" as="geometry" />
        </mxCell>
        <mxCell id="DScNW-XV0BTDIEd8ZfKR-64" value="Veritran" style="ellipse;whiteSpace=wrap;html=1;aspect=fixed;fontColor=#000000;" vertex="1" parent="DScNW-XV0BTDIEd8ZfKR-58">
          <mxGeometry x="50" y="40" width="80" height="80" as="geometry" />
        </mxCell>
        <mxCell id="DScNW-XV0BTDIEd8ZfKR-66" value="DMZ" style="sketch=0;outlineConnect=0;gradientColor=none;html=1;whiteSpace=wrap;fontSize=12;fontStyle=0;shape=mxgraph.aws4.group;grIcon=mxgraph.aws4.group_availability_zone;strokeColor=#545B64;fillColor=none;verticalAlign=top;align=left;spacingLeft=30;fontColor=#545B64;dashed=1;" vertex="1" parent="DScNW-XV0BTDIEd8ZfKR-58">
          <mxGeometry x="60" y="160" width="320" height="120" as="geometry" />
        </mxCell>
        <mxCell id="DScNW-XV0BTDIEd8ZfKR-69" value="INGRESS" style="aspect=fixed;perimeter=ellipsePerimeter;html=1;align=center;shadow=0;dashed=0;spacingTop=3;image;image=img/lib/active_directory/internet_cloud.svg;fontColor=#000000;" vertex="1" parent="DScNW-XV0BTDIEd8ZfKR-58">
          <mxGeometry x="195" y="204.25" width="50" height="31.5" as="geometry" />
        </mxCell>
        <mxCell id="DScNW-XV0BTDIEd8ZfKR-72" style="edgeStyle=orthogonalEdgeStyle;rounded=0;orthogonalLoop=1;jettySize=auto;html=1;entryX=1;entryY=0.5;entryDx=0;entryDy=0;fontColor=#000000;" edge="1" parent="DScNW-XV0BTDIEd8ZfKR-58" source="DScNW-XV0BTDIEd8ZfKR-70" target="DScNW-XV0BTDIEd8ZfKR-64">
          <mxGeometry relative="1" as="geometry">
            <Array as="points">
              <mxPoint x="190" y="80" />
              <mxPoint x="190" y="80" />
            </Array>
          </mxGeometry>
        </mxCell>
        <mxCell id="DScNW-XV0BTDIEd8ZfKR-70" value="BUS de Servicios" style="outlineConnect=0;dashed=0;verticalLabelPosition=bottom;verticalAlign=top;align=center;html=1;shape=mxgraph.aws3.auto_scaling;fillColor=#3399FF;gradientColor=none;fontColor=#000000;" vertex="1" parent="DScNW-XV0BTDIEd8ZfKR-58">
          <mxGeometry x="210" y="50" width="60" height="66.5" as="geometry" />
        </mxCell>
        <mxCell id="DScNW-XV0BTDIEd8ZfKR-74" value="Sistemas Bech" style="outlineConnect=0;dashed=0;verticalLabelPosition=bottom;verticalAlign=top;align=center;html=1;shape=mxgraph.aws3.corporate_data_center;fillColor=#7D7C7C;gradientColor=none;" vertex="1" parent="DScNW-XV0BTDIEd8ZfKR-58">
          <mxGeometry x="620" y="20" width="30" height="43" as="geometry" />
        </mxCell>
        <mxCell id="DScNW-XV0BTDIEd8ZfKR-75" value="Mainframe zSeries" style="sketch=0;outlineConnect=0;gradientColor=none;html=1;whiteSpace=wrap;fontSize=12;fontStyle=0;shape=mxgraph.aws4.group;grIcon=mxgraph.aws4.group_availability_zone;strokeColor=#545B64;fillColor=none;verticalAlign=top;align=left;spacingLeft=30;fontColor=#545B64;dashed=1;" vertex="1" parent="DScNW-XV0BTDIEd8ZfKR-58">
          <mxGeometry x="600" y="150" width="215" height="120" as="geometry" />
        </mxCell>
        <mxCell id="DScNW-XV0BTDIEd8ZfKR-76" value="CICS" style="whiteSpace=wrap;html=1;" vertex="1" parent="DScNW-XV0BTDIEd8ZfKR-58">
          <mxGeometry x="620" y="190" width="180" height="65" as="geometry" />
        </mxCell>
        <mxCell id="DScNW-XV0BTDIEd8ZfKR-77" value="INGRESS / EGRESS" style="aspect=fixed;perimeter=ellipsePerimeter;html=1;align=center;shadow=0;dashed=0;spacingTop=3;image;image=img/lib/active_directory/internet_cloud.svg;fontColor=#000000;" vertex="1" parent="DScNW-XV0BTDIEd8ZfKR-58">
          <mxGeometry x="460" y="31.5" width="50" height="31.5" as="geometry" />
        </mxCell>
        <mxCell id="DScNW-XV0BTDIEd8ZfKR-68" style="edgeStyle=orthogonalEdgeStyle;rounded=0;orthogonalLoop=1;jettySize=auto;html=1;fontColor=#000000;" edge="1" parent="1" source="DScNW-XV0BTDIEd8ZfKR-65" target="DScNW-XV0BTDIEd8ZfKR-66">
          <mxGeometry relative="1" as="geometry">
            <Array as="points">
              <mxPoint x="305" y="-290" />
            </Array>
          </mxGeometry>
        </mxCell>
        <mxCell id="DScNW-XV0BTDIEd8ZfKR-65" value="Internet" style="aspect=fixed;perimeter=ellipsePerimeter;html=1;align=center;shadow=0;dashed=0;spacingTop=3;image;image=img/lib/active_directory/internet_cloud.svg;fontColor=#000000;" vertex="1" parent="1">
          <mxGeometry x="280" y="-400" width="50" height="31.5" as="geometry" />
        </mxCell>
        <mxCell id="DScNW-XV0BTDIEd8ZfKR-73" style="edgeStyle=orthogonalEdgeStyle;rounded=0;orthogonalLoop=1;jettySize=auto;html=1;exitX=0;exitY=0.5;exitDx=0;exitDy=0;entryX=0.482;entryY=0.017;entryDx=0;entryDy=0;entryPerimeter=0;fontColor=#000000;" edge="1" parent="1" source="DScNW-XV0BTDIEd8ZfKR-64" target="DScNW-XV0BTDIEd8ZfKR-54">
          <mxGeometry relative="1" as="geometry">
            <Array as="points">
              <mxPoint x="410" y="-430" />
              <mxPoint x="410" y="-450" />
              <mxPoint x="164" y="-450" />
            </Array>
          </mxGeometry>
        </mxCell>
        <mxCell id="DScNW-XV0BTDIEd8ZfKR-81" style="edgeStyle=orthogonalEdgeStyle;rounded=0;orthogonalLoop=1;jettySize=auto;html=1;entryX=0.5;entryY=1;entryDx=0;entryDy=0;fontColor=#000000;startArrow=none;startFill=0;" edge="1" parent="1" source="DScNW-XV0BTDIEd8ZfKR-77" target="DScNW-XV0BTDIEd8ZfKR-38">
          <mxGeometry relative="1" as="geometry" />
        </mxCell>
        <mxCell id="DScNW-XV0BTDIEd8ZfKR-82" style="edgeStyle=orthogonalEdgeStyle;rounded=0;orthogonalLoop=1;jettySize=auto;html=1;fontColor=#000000;startArrow=none;startFill=0;" edge="1" parent="1" source="DScNW-XV0BTDIEd8ZfKR-74">
          <mxGeometry relative="1" as="geometry">
            <mxPoint x="610" y="-480" as="targetPoint" />
            <Array as="points">
              <mxPoint x="960" y="-480" />
              <mxPoint x="960" y="-480" />
            </Array>
          </mxGeometry>
        </mxCell>
        <mxCell id="DScNW-XV0BTDIEd8ZfKR-83" style="edgeStyle=orthogonalEdgeStyle;rounded=0;orthogonalLoop=1;jettySize=auto;html=1;entryX=0;entryY=0.25;entryDx=0;entryDy=0;fontColor=#000000;startArrow=none;startFill=0;" edge="1" parent="1" source="DScNW-XV0BTDIEd8ZfKR-74" target="DScNW-XV0BTDIEd8ZfKR-27">
          <mxGeometry relative="1" as="geometry">
            <Array as="points">
              <mxPoint x="1090" y="-815" />
            </Array>
          </mxGeometry>
        </mxCell>
      </root>
    </mxGraphModel>
  </diagram>
</mxfile>
